<svg xmlns="http://www.w3.org/2000/svg" viewBox="0 0 246.38 239"><defs><style>.cls-1{fill:none;stroke:#e2e8f0;stroke-miterlimit:10;stroke-width:15px;}.cls-2{fill:#e2e8f0;}</style></defs><g id="Layer_2" data-name="Layer 2"><g id="Logo"><rect class="cls-1" x="92.95" y="88.12" width="61.54" height="61.54" rx="30.77" transform="translate(4.83 242.6) rotate(-90)"/><rect class="cls-1" x="7.5" y="169.96" width="61.54" height="61.54" rx="30.77"/><rect class="cls-1" x="177.35" y="169.96" width="61.54" height="61.54" rx="30.77"/><rect class="cls-1" x="177.35" y="7.5" width="61.54" height="61.54" rx="30.77"/><path class="cls-2" d="M35.88,50.62,33,49.79a.57.57,0,0,1-.38-.71l6.45-22.24a.57.57,0,0,1,.71-.39l2.89.84A.56.56,0,0,1,43,28L36.59,50.24A.57.57,0,0,1,35.88,50.62Zm-5.39-5.3,2.05-2.2a.56.56,0,0,0,0-.81l-4.29-3.77,4.29-3.77a.57.57,0,0,0,0-.82l-2.05-2.19a.58.58,0,0,0-.81,0l-6.82,6.39a.57.57,0,0,0,0,.83l6.82,6.39a.57.57,0,0,0,.81,0Zm15.48,0L52.78,39a.55.55,0,0,0,0-.83L46,31.73a.58.58,0,0,0-.81,0L43.1,34a.57.57,0,0,0,0,.81l4.29,3.78-4.29,3.77a.56.56,0,0,0,0,.81l2.06,2.2a.57.57,0,0,0,.81,0Z"/><rect class="cls-1" x="7.5" y="7.5" width="61.54" height="61.54" rx="30.77"/><path class="cls-1" d="M38.27,170V143.88a25,25,0,0,1,25-25H93"/><path class="cls-1" d="M208.12,69V93.88a25,25,0,0,1-25,25H154.49"/></g></g></svg>