<svg xmlns="http://www.w3.org/2000/svg" viewBox="0 0 422 422"><defs><style>.cls-1{fill:#e2e8f0;}</style></defs><g id="Layer_2" data-name="Layer 2"><g id="Logo"><path class="cls-1" d="M125.08,270a23.27,23.27,0,1,1-23.27,23.27A23.3,23.3,0,0,1,125.08,270Zm85.45-81.84a23.27,23.27,0,1,0,23.26,23.26A23.28,23.28,0,0,0,210.53,188.12Zm84.39-80.62a23.27,23.27,0,1,0,23.27,23.27A23.3,23.3,0,0,0,294.92,107.5ZM148.35,130.77a23.27,23.27,0,1,1-23.27-23.27A23.24,23.24,0,0,1,148.35,130.77Zm-29,4.85a.55.55,0,0,0,0-.81L115,131l4.28-3.77a.57.57,0,0,0,0-.82l-2.06-2.19a.57.57,0,0,0-.8,0l-6.82,6.39a.57.57,0,0,0,0,.83l6.82,6.39a.56.56,0,0,0,.8,0Zm10.5-15.13a.55.55,0,0,0-.39-.7l-2.88-.84a.56.56,0,0,0-.71.39l-6.46,22.24a.58.58,0,0,0,.39.71l2.89.83a.56.56,0,0,0,.7-.38Zm9.74,10.13-6.82-6.39a.57.57,0,0,0-.8,0l-2.06,2.2a.56.56,0,0,0,0,.81l4.29,3.78L130,134.81a.56.56,0,0,0,0,.81l2.06,2.2a.56.56,0,0,0,.8,0l6.82-6.39A.57.57,0,0,0,139.59,130.62Zm178.6,162.61A23.27,23.27,0,1,1,294.92,270,23.3,23.3,0,0,1,318.19,293.23Zm0,0A23.27,23.27,0,1,1,294.92,270,23.3,23.3,0,0,1,318.19,293.23ZM148.35,130.77a23.27,23.27,0,1,1-23.27-23.27A23.24,23.24,0,0,1,148.35,130.77Zm-29,4.85a.55.55,0,0,0,0-.81L115,131l4.28-3.77a.57.57,0,0,0,0-.82l-2.06-2.19a.57.57,0,0,0-.8,0l-6.82,6.39a.57.57,0,0,0,0,.83l6.82,6.39a.56.56,0,0,0,.8,0Zm10.5-15.13a.55.55,0,0,0-.39-.7l-2.88-.84a.56.56,0,0,0-.71.39l-6.46,22.24a.58.58,0,0,0,.39.71l2.89.83a.56.56,0,0,0,.7-.38Zm9.74,10.13-6.82-6.39a.57.57,0,0,0-.8,0l-2.06,2.2a.56.56,0,0,0,0,.81l4.29,3.78L130,134.81a.56.56,0,0,0,0,.81l2.06,2.2a.56.56,0,0,0,.8,0l6.82-6.39A.57.57,0,0,0,139.59,130.62Zm8.76.15a23.27,23.27,0,1,1-23.27-23.27A23.24,23.24,0,0,1,148.35,130.77Zm-29,4.85a.55.55,0,0,0,0-.81L115,131l4.28-3.77a.57.57,0,0,0,0-.82l-2.06-2.19a.57.57,0,0,0-.8,0l-6.82,6.39a.57.57,0,0,0,0,.83l6.82,6.39a.56.56,0,0,0,.8,0Zm10.5-15.13a.55.55,0,0,0-.39-.7l-2.88-.84a.56.56,0,0,0-.71.39l-6.46,22.24a.58.58,0,0,0,.39.71l2.89.83a.56.56,0,0,0,.7-.38Zm9.74,10.13-6.82-6.39a.57.57,0,0,0-.8,0l-2.06,2.2a.56.56,0,0,0,0,.81l4.29,3.78L130,134.81a.56.56,0,0,0,0,.81l2.06,2.2a.56.56,0,0,0,.8,0l6.82-6.39A.57.57,0,0,0,139.59,130.62Zm178.6,162.61A23.27,23.27,0,1,1,294.92,270,23.3,23.3,0,0,1,318.19,293.23Zm0,0A23.27,23.27,0,1,1,294.92,270,23.3,23.3,0,0,1,318.19,293.23ZM148.35,130.77a23.27,23.27,0,1,1-23.27-23.27A23.24,23.24,0,0,1,148.35,130.77Zm-29,4.85a.55.55,0,0,0,0-.81L115,131l4.28-3.77a.57.57,0,0,0,0-.82l-2.06-2.19a.57.57,0,0,0-.8,0l-6.82,6.39a.57.57,0,0,0,0,.83l6.82,6.39a.56.56,0,0,0,.8,0Zm10.5-15.13a.55.55,0,0,0-.39-.7l-2.88-.84a.56.56,0,0,0-.71.39l-6.46,22.24a.58.58,0,0,0,.39.71l2.89.83a.56.56,0,0,0,.7-.38Zm9.74,10.13-6.82-6.39a.57.57,0,0,0-.8,0l-2.06,2.2a.56.56,0,0,0,0,.81l4.29,3.78L130,134.81a.56.56,0,0,0,0,.81l2.06,2.2a.56.56,0,0,0,.8,0l6.82-6.39A.57.57,0,0,0,139.59,130.62ZM422,211c0,116.53-94.47,211-211,211S0,327.53,0,211,94.47,0,211,0,422,94.47,422,211ZM86.81,130.77A38.27,38.27,0,1,0,125.08,92.5,38.32,38.32,0,0,0,86.81,130.77ZM333.19,293.23a38.27,38.27,0,1,0-38.27,38.27A38.32,38.32,0,0,0,333.19,293.23Zm0-162.46a38.27,38.27,0,1,0-45.77,37.53v18.08a17.52,17.52,0,0,1-17.5,17.5H248.05a38.27,38.27,0,0,0-75.05,0H150.08a32.54,32.54,0,0,0-32.5,32.5V255.7a38.27,38.27,0,1,0,15,0V236.38a17.53,17.53,0,0,1,17.5-17.5H173a38.27,38.27,0,0,0,75.05,0h21.87a32.53,32.53,0,0,0,32.5-32.5V168.3A38.34,38.34,0,0,0,333.19,130.77Zm-15,162.46A23.27,23.27,0,1,1,294.92,270,23.3,23.3,0,0,1,318.19,293.23ZM101.81,130.77A23.26,23.26,0,1,1,125.08,154,23.3,23.3,0,0,1,101.81,130.77Zm28.1-4.32a.56.56,0,0,0,0,.81l4.29,3.78L130,134.81a.56.56,0,0,0,0,.81l2.06,2.2a.56.56,0,0,0,.8,0l6.82-6.39a.57.57,0,0,0,0-.83l-6.82-6.39a.57.57,0,0,0-.8,0Zm-10.5,15.13a.58.58,0,0,0,.39.71l2.89.83a.56.56,0,0,0,.7-.38l6.46-22.25a.55.55,0,0,0-.39-.7l-2.88-.84a.56.56,0,0,0-.71.39Zm-9.74-10.13,6.82,6.39a.56.56,0,0,0,.8,0l2.06-2.2a.55.55,0,0,0,0-.81L115,131l4.28-3.77a.57.57,0,0,0,0-.82l-2.06-2.19a.57.57,0,0,0-.8,0l-6.82,6.39A.57.57,0,0,0,109.67,131.45Zm38.68-.68a23.27,23.27,0,1,1-23.27-23.27A23.24,23.24,0,0,1,148.35,130.77Zm-29,4.85a.55.55,0,0,0,0-.81L115,131l4.28-3.77a.57.57,0,0,0,0-.82l-2.06-2.19a.57.57,0,0,0-.8,0l-6.82,6.39a.57.57,0,0,0,0,.83l6.82,6.39a.56.56,0,0,0,.8,0Zm10.5-15.13a.55.55,0,0,0-.39-.7l-2.88-.84a.56.56,0,0,0-.71.39l-6.46,22.24a.58.58,0,0,0,.39.71l2.89.83a.56.56,0,0,0,.7-.38Zm9.74,10.13-6.82-6.39a.57.57,0,0,0-.8,0l-2.06,2.2a.56.56,0,0,0,0,.81l4.29,3.78L130,134.81a.56.56,0,0,0,0,.81l2.06,2.2a.56.56,0,0,0,.8,0l6.82-6.39A.57.57,0,0,0,139.59,130.62Zm178.6,162.61A23.27,23.27,0,1,1,294.92,270,23.3,23.3,0,0,1,318.19,293.23Zm0,0A23.27,23.27,0,1,1,294.92,270,23.3,23.3,0,0,1,318.19,293.23ZM148.35,130.77a23.27,23.27,0,1,1-23.27-23.27A23.24,23.24,0,0,1,148.35,130.77Zm-29,4.85a.55.55,0,0,0,0-.81L115,131l4.28-3.77a.57.57,0,0,0,0-.82l-2.06-2.19a.57.57,0,0,0-.8,0l-6.82,6.39a.57.57,0,0,0,0,.83l6.82,6.39a.56.56,0,0,0,.8,0Zm10.5-15.13a.55.55,0,0,0-.39-.7l-2.88-.84a.56.56,0,0,0-.71.39l-6.46,22.24a.58.58,0,0,0,.39.71l2.89.83a.56.56,0,0,0,.7-.38Zm9.74,10.13-6.82-6.39a.57.57,0,0,0-.8,0l-2.06,2.2a.56.56,0,0,0,0,.81l4.29,3.78L130,134.81a.56.56,0,0,0,0,.81l2.06,2.2a.56.56,0,0,0,.8,0l6.82-6.39A.57.57,0,0,0,139.59,130.62Zm8.76.15a23.27,23.27,0,1,1-23.27-23.27A23.24,23.24,0,0,1,148.35,130.77Zm-29,4.85a.55.55,0,0,0,0-.81L115,131l4.28-3.77a.57.57,0,0,0,0-.82l-2.06-2.19a.57.57,0,0,0-.8,0l-6.82,6.39a.57.57,0,0,0,0,.83l6.82,6.39a.56.56,0,0,0,.8,0Zm10.5-15.13a.55.55,0,0,0-.39-.7l-2.88-.84a.56.56,0,0,0-.71.39l-6.46,22.24a.58.58,0,0,0,.39.71l2.89.83a.56.56,0,0,0,.7-.38Zm9.74,10.13-6.82-6.39a.57.57,0,0,0-.8,0l-2.06,2.2a.56.56,0,0,0,0,.81l4.29,3.78L130,134.81a.56.56,0,0,0,0,.81l2.06,2.2a.56.56,0,0,0,.8,0l6.82-6.39A.57.57,0,0,0,139.59,130.62Zm8.76.15a23.27,23.27,0,1,1-23.27-23.27A23.24,23.24,0,0,1,148.35,130.77Zm-29,4.85a.55.55,0,0,0,0-.81L115,131l4.28-3.77a.57.57,0,0,0,0-.82l-2.06-2.19a.57.57,0,0,0-.8,0l-6.82,6.39a.57.57,0,0,0,0,.83l6.82,6.39a.56.56,0,0,0,.8,0Zm10.5-15.13a.55.55,0,0,0-.39-.7l-2.88-.84a.56.56,0,0,0-.71.39l-6.46,22.24a.58.58,0,0,0,.39.71l2.89.83a.56.56,0,0,0,.7-.38Zm9.74,10.13-6.82-6.39a.57.57,0,0,0-.8,0l-2.06,2.2a.56.56,0,0,0,0,.81l4.29,3.78L130,134.81a.56.56,0,0,0,0,.81l2.06,2.2a.56.56,0,0,0,.8,0l6.82-6.39A.57.57,0,0,0,139.59,130.62Z"/></g></g></svg>